<svg  aria-hidden="true" style="position:absolute;width:0;height:0" xmlns="http://www.w3.org/2000/svg" overflow="hidden">
<defs>
<symbol fill="none" id="instagram" viewBox="0 0 24 24">
 <path  stroke-linecap="round" stroke-linejoin="round" stroke-width="2" d="M17 2H7a5 5 0 0 0-5 5v10a5 5 0 0 0 5 5h10a5 5 0 0 0 5-5V7a5 5 0 0 0-5-5Z"/>
  <path stroke-linecap="round" stroke-linejoin="round" stroke-width="2" d="M16 11.37a4 4 0 1 1-7.913 1.174A4 4 0 0 1 16 11.37Z"/>
  <path  stroke-linecap="round" stroke-linejoin="round" stroke-width="2" d="M16 11.37a4 4 0 1 1-7.913 1.174A4 4 0 0 1 16 11.37Zm1.5-4.87h.01m-.01 0h.01"/>
</symbol>
<symbol   fill="none" id="twitter" viewBox="0 0 24 24">
  <path  stroke-linecap="round" stroke-linejoin="round" stroke-width="2" d="M23 3a10.9 10.9 0 0 1-3.14 1.53 4.48 4.48 0 0 0-7.86 3v1a10.66 10.66 0 0 1-5.069-1.135c-1.57-.79-3.42-2.672-4.431-4.11C2.5 3.285-1 13 8 17a11.64 11.64 0 0 1-7 2c9 5 20 0 20-11.5 0-.279-.028-.556-.08-.83A7.72 7.72 0 0 0 23 3Z"/>
</symbol>
</defs>
</svg>